C:\GBW_MyPrograms\KinderuniversiteitApp\Resultaten\Ellis_v10102025\Reus\Reus_v1.mot
version=1
nRows=8
nColumns=29
inDegrees=yes
endheader
                time	         pelvis_tilt	           pelvis_tx	           pelvis_ty	       hip_flexion_l	       hip_flexion_r	        knee_angle_l	        knee_angle_r	       ankle_angle_l	       ankle_angle_r	    lumbar_extension	hamstrings_r/activation	bifemsh_r/activation	glut_max_r/activation	iliopsoas_r/activation	rect_fem_r/activation	  vasti_r/activation	gastroc_r/activation	 soleus_r/activation	tib_ant_r/activation	hamstrings_l/activation	bifemsh_l/activation	glut_max_l/activation	iliopsoas_l/activation	rect_fem_l/activation	  vasti_l/activation	gastroc_l/activation	 soleus_l/activation	tib_ant_l/activation	
          0.00000000	         -9.11975537	          0.00000000	          0.81038445	         20.14362379	         19.71879789	        -28.37120019	        -29.00193425	          9.83829845	          9.75074318	        -10.37296904	          0.42745652	          0.30134427	          0.52742590	          0.15696912	          0.18593292	          0.47767201	          0.29381696	          0.55649487	          0.16143539	          0.21037009	          0.33508196	          0.26885859	          0.32481617	          0.43380783	          0.43351662	          0.43146236	          0.43158421	          0.32758368	
          0.00200000	         -9.11163196	          0.52645034	          0.80920127	         20.39295343	         19.68505300	        -28.31430052	        -29.42605919	          9.81835199	          9.86192151	        -10.37070680	          0.39806530	          0.27560787	          0.55813668	          0.13472727	          0.24207442	          0.51417345	          0.26868685	          0.58231554	          0.13920568	          0.18335615	          0.30794611	          0.31737068	          0.29717107	          0.46064067	          0.47754228	          0.39826059	          0.41305501	          0.32432029	
          0.00400000	         -9.11782257	          0.66532378	          0.80962955	         20.32893812	         19.87198191	        -28.41000324	        -29.48003384	          9.79092295	          9.95012440	        -10.36577686	          0.36965357	          0.25125692	          0.58488462	          0.11342839	          0.23862187	          0.54521765	          0.33043812	          0.60538180	          0.11577621	          0.15979014	          0.28527766	          0.33594480	          0.27120794	          0.43041020	          0.44546580	          0.44442229	          0.45814386	          0.29428320	
          0.00600000	         -9.13469152	          0.74373431	          0.81033610	         20.24920007	         19.93488997	        -28.52739682	        -30.01932467	          9.76264561	         10.01788827	        -10.35816438	          0.33997305	          0.22802892	          0.60771079	          0.09524424	          0.29083903	          0.57187479	          0.31991516	          0.62485848	          0.09349916	          0.23436119	          0.34365807	          0.30834472	          0.32809147	          0.39951218	          0.41173049	          0.48561994	          0.49798645	          0.26463210	
          0.00800000	         -9.15173660	          0.79287843	          0.81074921	         20.20058571	         20.08749045	        -28.61256801	        -30.70098683	          9.73898507	         10.07335880	        -10.34718565	          0.31078537	          0.20622498	          0.62709289	          0.08283642	          0.33333791	          0.59366608	          0.29408080	          0.59444747	          0.07363778	          0.28200139	          0.39220823	          0.28336510	          0.30457897	          0.37117480	          0.37852227	          0.52199939	          0.53297708	          0.23612385	
          0.01000000	         -9.16981555	          0.82484198	          0.81119398	         20.13665187	         20.29992767	        -28.76902849	        -31.59432193	          9.71736389	         10.12019482	        -10.33287524	          0.28232258	          0.18604184	          0.64345918	          0.09489698	          0.32524828	          0.58789175	          0.26700955	          0.55708008	          0.06232767	          0.26249246	          0.37004411	          0.33995622	          0.27877664	          0.35068931	          0.42109020	          0.55418750	          0.56365100	          0.20870247	
          0.01200000	         -9.18435906	          0.84600070	          0.81194795	         20.09603269	         20.58164534	        -29.41715451	        -32.64386307	          9.69204695	         10.15342242	        -10.31714883	          0.25453863	          0.16772077	          0.65816341	          0.08500332	          0.30550921	          0.55186508	          0.23982811	          0.51976417	          0.06003027	          0.24217843	          0.34499719	          0.39179367	          0.25303050	          0.38116003	          0.46281997	          0.58268135	          0.59034763	          0.18243588	
          0.01400000	         -9.19005901	          0.86017728	          0.81116052	         20.38078516	         20.46079386	        -29.46191745	        -31.92455451	          9.75654356	         10.17544180	        -10.30254926	          0.22667072	          0.15063158	          0.63778111	          0.11314216	          0.28808566	          0.51724172	          0.21274222	          0.48328233	          0.06894201	          0.24039945	          0.32711189	          0.43551401	          0.22934458	          0.35665916	          0.49123655	          0.60778929	          0.61456879	          0.15676613	
